<svg xmlns="http://www.w3.org/2000/svg" xml:space="preserve" width="150mm" height="150mm" style="shape-rendering:geometricPrecision;text-rendering:geometricPrecision;image-rendering:optimizeQuality;fill-rule:evenodd;clip-rule:evenodd" viewBox="0 0 15000 15000"><defs><style>.fil0{fill:#1e1e2e;fill-rule:nonzero}</style></defs><g id="Camada_x0020_1"><path d="M8357.35 6185.99c-533.04 533.05-1397.29 533.05-1930.35 0-533.05-533.06-533.05-1397.31 0-1930.35 533.06-533.06 1397.31-533.06 1930.35 0 533.06 533.04 533.06 1397.29 0 1930.35" class="fil0"/><path d="M12665.88 2335.24c-2853.08-2853.08-7478.84-2853.08-10331.91 0-2853.08 2853.07-2853.08 7478.83 0 10331.91 2853.07 2853.08 7478.83 2853.08 10331.91 0s2853.08-7478.84 0-10331.91M7293.04 14412.07c-3816.78 114.25-6818.25-2887.22-6704-6703.99C703.31 3891.31 3890.05 704.58 7706.81 590.32c1499.62-44.89 2873.2 391.4 3981.57 1168.93 377.24 116.27 707.92 306.93 977.5 576.51 269.67 269.68 460.34 600.53 576.67 977.91 777.12 1108.21 1213.13 2481.46 1168.25 3980.64-114.27 3816.76-3300.99 7003.5-7117.76 7117.76" class="fil0"/><path d="M13242.55 3313.67c-116.33-377.38-307-708.23-576.67-977.91-269.58-269.58-600.26-460.24-977.5-576.51-726.78-224-1626.6-171.54-2596.8 127.01 16.64 40.71 33.07 82.11 49.36 124.06 1033.81-300.79 1962.19-224.51 2606.69 303.15 1535.46 1257.12 878.44 4599.07-1467.49 7464.45-158.67 193.81-321.09 380.2-486.33 559.39-.43.47-.87.92-1.31 1.38 125.87-873.74 195.73-1833.92 195.73-2842.31 0-51.54-1.2-102.22-1.57-153.49-1596.31-605.2-3361.91-630.98-4972.78-77.84-.83 77.07-2.25 153.69-2.25 231.33 0 977.73 65.62 1910.25 184.33 2762.51 29.05 208.45 61.15 412.29 96.37 610.59 665.77 589.19 1358.55 1083.3 2046.7 1472.89-1.56.91-3.12 1.88-4.7 2.78-409.23 236.66-815.26 426.26-1208.57 562.78 19.16 40.31 38.53 79.84 58.14 118.5 429.64-150.7 870.91-348.66 1315.12-589.79 219.24-119.01 443.97-241.34 658.77-388.79 335.73-230.44 992.71-712.57 1310.98-966.54 81.74-65.22 159.52-136.35 238.76-206.46 203-179.66 403.57-367.81 600.65-564.88 2357-2357 3487.04-5203.27 2934.37-6996.3" class="fil0"/><path d="M9595.81 4576.95c-38.19-225.62-80.6-444.25-127.06-654.81-590.5-497.89-1198.94-920.76-1803.83-1263.49-202.52 117.12-405.72 246.05-608.71 386.27 840.77 361.35 1707.71 875.8 2539.6 1532.03" class="fil0"/><path d="M8815.96 1977.04c-429.93 150.79-871.5 348.9-1316.02 590.27-219.09 118.96-438.85 248.56-658.39 388.61-440.79 281.22-880.4 603.64-1310.47 966.23-79.95 67.42-159.52 136.35-238.75 206.47-203.01 179.65-403.59 367.8-600.65 564.87-2853.08 2853.08-3908.67 6423.25-2357.7 7974.2 788.94 788.94 2100.51 903.02 3574.29 449.51-16.65-40.71-33.08-82.11-49.35-124.05-1033.82 300.78-1962.19 224.5-2606.69-303.17-1535.46-1257.12-878.45-4599.05 1467.49-7464.44 158.66-193.79 321.09-380.18 486.33-559.38 73.95-80.2 148.49-158.98 223.56-236.16 524.56-539.47 1074.39-1003.62 1626.6-1385.09 202.98-140.22 406.19-269.14 608.7-386.26 409.46-236.81 815.68-426.53 1209.18-563.12-19.15-40.31-38.53-79.84-58.13-118.49" class="fil0"/><path d="M5292.33 4128.62c79.23-70.1 158.8-139.05 238.75-206.46 103.84-470.73 227.56-901.56 367.72-1283-79.61-21.33-158.71-41.16-237.2-59.34-144.6 465.36-269.18 985.24-369.27 1548.8m2207.59 10068.25c-488.37 0-941.56-432.23-1316.02-1170.44-19.61-38.66-38.98-78.19-58.14-118.5-579.14-1218.01-955.36-3185.67-955.36-5406.2 0-1107.31 93.6-2151.69 259.21-3071.73-75.07 77.2-149.61 155.96-223.58 236.18-125.17 871.88-194.4 1829.96-194.4 2835.55 0 2188.78 327.93 4152.44 847.29 5491.42 16.27 41.94 32.7 83.34 49.35 124.05 431.42 1055.26 986.25 1690.3 1591.65 1690.3s1160.12-635.33 1591.48-1690.62c-91.26-28.08-183.06-58.14-275.49-90.55-374.43 738.24-827.6 1170.54-1315.99 1170.54m2207.61-3322.02c-79.24 70.12-158.81 139.06-238.76 206.46-103.79 470.56-227.45 901.26-367.58 1282.57 79.64 21.34 158.71 41.1 237.2 59.29 144.55-465.25 269.09-984.96 369.14-1548.32" class="fil0"/><path d="M6183.99 1977.06c-92.38-32.4-184.22-62.64-275.44-90.72-1473.88-453.61-2785.57-339.58-3574.58 449.44C783.01 3886.73 1838.6 7456.9 4691.68 10309.99c197.14 197.13 397.84 385.13 600.94 564.72l-3.72-24.57.18.04c-33.89-192.29-65.01-389.51-93.12-591.29-2845.9-2343.48-4137.29-5474.38-2884.28-7004.85 662.51-809.23 1904.21-1009.22 3349.92-674.22 78.49 18.18 157.59 38.01 237.2 59.34 307.31 82.32 622.79 188.5 942.75 316.78 219.54-140.06 439.28-269.67 658.39-388.63-444.5-241.35-886.04-439.46-1315.95-590.25m4124.19 2716.43c-197.1-197.09-397.71-385.29-600.74-564.97 35.58 200.33 68.08 406.11 97.35 616.8 2845.26 2343.38 4136.28 5473.8 2883.39 7004.11-662.48 809.16-1904.18 1008.71-3349.79 673.74-78.49-18.19-157.56-37.95-237.2-59.29-307.59-82.38-623.08-187.6-943.38-316.03-219.67 140.12-439.55 269.8-658.78 388.79 444.87 241.65 886.63 438.78 1316.88 589.69 92.43 32.41 184.23 62.47 275.49 90.55 1473.82 453.57 2785.52 339.78 3574.49-449.19 1550.94-1550.95 495.36-5121.12-2357.71-7974.2" class="fil0"/><path d="M9804.79 4745.32c-29.27-210.69-61.77-416.47-97.35-616.8-143.18-805.82-335.91-1523.69-566.5-2118.19-16.27-41.96-32.72-83.36-49.36-124.07-431.41-1055.25-986.25-1690.3-1591.66-1690.3-605.34 0-1160.02 635.24-1591.37 1690.38 91.22 28.08 183.06 58.32 275.44 90.72 374.42-738.19 827.57-1170.47 1315.93-1170.47 488.39 0 941.58 432.25 1316.04 1170.46 19.6 38.64 38.96 78.18 58.14 118.49 235.74 495.81 437.84 1115.86 594.65 1826.6 46.46 210.56 88.87 429.19 127.06 654.81 149.62 883.67 233.65 1875.94 233.65 2924.78 0 1107.32-93.62 2151.71-259.21 3071.75 75.06-77.2 149.59-155.95 223.56-236.17 125.17-871.88 194.42-1829.97 194.42-2835.58 0-975.37-65.27-1905.81-183.44-2756.41" class="fil0"/></g></svg>