<svg xmlns="http://www.w3.org/2000/svg" width="54.253" height="54.253" viewBox="0 0 40.69 40.69"><path d="M17.715 7.164a4.403 4.403 0 0 1 0 8.805 4.4 4.4 0 0 1-4.399-4.407 4.4 4.4 0 0 1 4.399-4.398M31.07 20.36a4.403 4.403 0 1 1-8.805-.002 4.403 4.403 0 0 1 8.805.001m-13.367 4.418a4.402 4.402 0 1 1 0 8.805 4.402 4.402 0 0 1 0-8.805" style="stroke:none;fill-rule:nonzero;fill:#0a94d3;fill-opacity:1"/><path d="M31.793 31.797a16.13 16.13 0 0 1-11.453 4.742 16.13 16.13 0 0 1-11.45-4.742 16.13 16.13 0 0 1-4.742-11.45c0-4.476 1.809-8.511 4.747-11.449 2.937-2.933 6.968-4.746 11.449-4.746 4.476 0 8.511 1.813 11.449 4.746a16.13 16.13 0 0 1 4.742 11.45 16.13 16.13 0 0 1-4.742 11.449M20.343.004C9.106.004 0 9.109 0 20.348c0 11.234 9.105 20.34 20.344 20.343 11.234-.004 20.34-9.109 20.344-20.343C40.684 9.109 31.578.004 20.344.004" style="stroke:none;fill-rule:nonzero;fill:#0a94d3;fill-opacity:1"/></svg>